<?xml version="1.0" encoding="utf-8"?>
<!-- Generator: Adobe Illustrator 23.0.2, SVG Export Plug-In . SVG Version: 6.00 Build 0)  -->
<svg version="1.1" id="图层_1" xmlns="http://www.w3.org/2000/svg" xmlns:xlink="http://www.w3.org/1999/xlink" x="0px" y="0px"
	 viewBox="0 0 332 125.2" style="enable-background:new 0 0 332 125.2;" xml:space="preserve">
<style type="text/css">
	.st0{opacity:0.33;}
</style>
<g id="gfN5Lb_1_" class="st0">
</g>
<g>
	<path d="M131,19c0.4-0.5,0.6-1,0.6-1.7c0-0.7-0.2-1.3-0.6-1.7c-0.4-0.4-0.9-0.6-1.6-0.6h-9.8v25.6h-9V15l9-8.1H131
		c2.7,0,5,1,6.8,2.9c1.8,1.9,2.7,4.4,2.7,7.5c0,1.5-0.4,2.8-1.1,3.9c-0.7,1.1-1.7,2-2.8,2.6c1.1,0.3,2.1,1.1,2.8,2.3
		c0.7,1.2,1.1,2.5,1.1,4c0,3.1-0.9,5.7-2.8,7.6c-1.8,1.9-4.1,2.9-6.8,2.9h-9.5v-8.1h7.8c0.7,0,1.2-0.2,1.6-0.7
		c0.4-0.5,0.6-1,0.6-1.7c0-0.7-0.2-1.3-0.6-1.7c-0.4-0.4-0.9-0.6-1.6-0.6h-7.8v-8.1h7.8C130,19.7,130.6,19.5,131,19z"/>
	<path d="M144.2,40.6v-8.1h11.7c0.6,0,1.1-0.2,1.5-0.7c0.4-0.4,0.7-1,0.7-1.6c0-1.6-1.1-2.4-3.4-2.4c-3,0-5.5-1.1-7.4-3.2
		c-2-2.1-2.9-4.5-2.9-7.3c0-2.7,1.1-5.2,3.2-7.3c2.2-2.1,4.6-3.2,7.2-3.2h20.3l-9,8.1h-10.4c-0.6,0-1.1,0.2-1.6,0.7
		c-0.5,0.4-0.7,1-0.7,1.6c0,1.7,1.2,2.5,3.5,2.5c2.7,0,5.1,0.9,7.1,2.8c2.1,2,3.2,4.5,3.2,7.6c0,3-1.1,5.6-3.2,7.6
		c-2,1.9-4.4,2.9-7.2,2.9H144.2z"/>
	<path d="M201.4,10.9c3.1,3.1,4.6,7.4,4.6,12.8c0,5.3-1.6,9.6-4.7,12.8c-3,3-6.8,4.5-11.5,4.5c-4.7,0-8.5-1.5-11.5-4.5
		c-3.1-3.2-4.7-7.4-4.7-12.8s1.6-9.6,4.7-12.8c3-3,6.8-4.5,11.5-4.5C194.6,6.4,198.5,7.9,201.4,10.9z M195.4,17.3
		c-1.3-1.9-3.1-2.8-5.6-2.8c-2.5,0-4.4,0.9-5.6,2.7c-1.1,1.6-1.6,3.7-1.6,6.5c0,2.7,0.5,4.9,1.6,6.5c1.2,1.8,3.1,2.7,5.6,2.7
		c2.5,0,4.4-0.9,5.6-2.7c1.1-1.6,1.6-3.7,1.6-6.5C197.1,21.1,196.5,19,195.4,17.3z"/>
	<path d="M213.6,40.6V15h-9l9-8.1h9v33.7H213.6z"/>
</g>
<g>
	<path d="M36.7,64.4c-1.3,2.4-2.9,4.7-4.6,6.8c-1.7,2.1-3.3,3.9-4.8,5.5c-1.5,1.6-2.8,2.8-3.8,3.8c-1.1,1-1.6,1.5-1.7,1.5l-3.9-4.6
		c2-1.7,3.6-3.4,5-4.8s2.9-3.2,4.4-5.1s2.9-4,4.1-6.1L36.7,64.4z M55.5,113.7h28.9v6.1H20.5v-6.1h28.9v-13H25.4v-6.1h24.1v-8.8H26.8
		v-6.1h51.4v6.1H55.5l0.1,8.8h24.1v6.1H55.5V113.7z M71.5,67.9h-33v-6l36-0.1L87,78.1l-4.9,3.7L71.5,67.9z"/>
	<path d="M104.4,115.5c-1,0.9-2.2,1.8-3.4,2.7c-1.2,0.9-2.6,1.7-4.2,2.5l-2.9-5.4c3-1.5,5.3-3.2,6.9-5c1.6-1.8,2.9-3.4,3.6-4.9
		c0.8-1.5,1.3-3.3,1.6-5.3V81.8H95v-6h17.2v24.4c0,0.1,0,0.5-0.1,1c-0.1,0.6-0.2,1.4-0.5,2.4c-0.3,1-0.6,2.1-1.2,3.4
		c-0.5,1.3-1.3,2.6-2.2,4c0.7,0.6,1.9,1.2,3.4,2s3.5,1.2,5.9,1.2h45.6v6.1h-45.6c-1.6,0-3.2-0.2-4.5-0.5c-1.4-0.3-2.6-0.7-3.7-1.2
		c-1.1-0.5-2.1-1-2.9-1.5C105.6,116.4,104.9,115.9,104.4,115.5z M95.5,66.7l2.3-5.6l15,6.2l-2.3,5.6L95.5,66.7z M141.8,71.3v4.2
		h11.7v-1.3h6.1v13.4c0,2-0.7,3.6-2,4.9c-1.3,1.3-3,2-5,2h-10.8v17.1h-6.1V94.6h-4.5c-1.1,2.2-2.4,4.3-3.9,6.4
		c-1.4,2-2.8,3.8-4.1,5.4c-1.3,1.6-2.4,2.8-3.3,3.8c-0.9,1-1.4,1.5-1.5,1.6l-2.1-2.2l-2.2-2.2c1.3-1.4,2.5-2.7,3.5-3.9
		s2.1-2.5,3.3-4.1c1.2-1.6,2.3-3.2,3.3-4.9H118V75.6h17.7v-4.2H115v-6.1h20.7v-3.8h6.1v3.8h20.7v6.1H141.8z M135.7,88.5v-6.9h-11.6
		v6.9H135.7z M141.8,81.7v6.9h10.8c0.6,0,0.9-0.3,0.9-0.8v-6H141.8z M151.4,95.2l10.3,12.3l-4.6,3.9l-10.3-12.2L151.4,95.2z"/>
	<path d="M172.3,118.3c0-0.1,0.2-0.8,0.7-2.2c0.5-1.4,1-3.3,1.6-5.7c0.6-2.4,1.1-5.1,1.5-8.2s0.7-6.3,0.7-9.6V74h-3.9v-6.1h12.7
		l-3.5-4.2l4.6-3.9l6,7.2l-1.1,0.9h10.6V74h-19.2v7h11v-1.4h6.1v33.7c0,2-0.7,3.6-2,4.9c-1.4,1.3-3,2-4.9,2h-4.4v-6.1h4.4
		c0.6,0,0.8-0.3,0.8-0.9V87.2h-11v5.5c0,3.7-0.2,7.1-0.7,10.4c-0.5,3.3-1,6.2-1.7,8.8s-1.2,4.6-1.7,6.1c-0.5,1.5-0.8,2.4-0.8,2.5
		L172.3,118.3z M210.5,71.1c-0.9,1.6-2,3.1-3.3,4.6l-4.6-4c1.1-1.2,2-2.5,2.7-3.8c0.7-1.3,1.4-2.5,1.8-3.6s0.9-2.3,1.2-3.8l5.9,1.3
		c-0.1,0.1-0.1,0.4-0.3,1c-0.1,0.6-0.4,1.3-0.7,2.2h25.2v6.1H210.5z M234.8,104.5h5.9v6.1h-7l5.7,6.3l-4.5,4.1l-8-8.8l1.7-1.6h-11
		c-0.9,1.4-2.2,3.1-4,5c-1.8,1.9-4.1,3.6-7.1,5.2l-2.9-5.3c1.3-0.7,2.5-1.5,3.6-2.3c1.1-0.8,1.9-1.7,2.7-2.5h-6.9v-6.1h5.6v-21h-3.3
		v-6.1h3.3v-2.6h6.1v2.6h14v-2.6h6.1v2.6h3.6v6.1h-3.6V104.5z M214.7,83.5v2.5h14v-2.5H214.7z M214.7,95.3h14v-3.2h-14V95.3z
		 M214.7,104.5h14v-3.1h-14V104.5z"/>
	<path d="M248.6,118.1c1.1-2.8,1.9-5.2,2.6-7.2c0.6-2,1.2-4.2,1.7-6.4c0.5-2.3,0.8-4.4,0.8-6.3v-3.3h-4.2v-6.1h4.2V65.2h4.5l3.8-6
		l5.2,3.2l-1.8,2.8h7.5v-1.6h6.1v25.2h2.9v6.1h-2.9v18.5c0,2-0.7,3.6-2,4.9c-1.3,1.3-3,2-4.9,2H268v-6.1h3.9c0.3,0,0.5-0.1,0.6-0.3
		c0.2-0.2,0.3-0.4,0.3-0.7V94.9h-13v3.3c0,2.2-0.3,4.5-0.8,7.1c-0.6,2.5-1.2,4.9-1.9,7.1c-0.7,2.2-1.3,4.1-1.9,5.6
		c-0.6,1.5-0.9,2.3-1,2.5L248.6,118.1z M259.8,88.8h13V71.3h-13V88.8z M270.9,85.8l-5.7,1.9l-4.4-12.9l5.7-1.9L270.9,85.8z
		 M270.9,110.1l-5.8,1.9l-4.3-13.4l5.8-1.9L270.9,110.1z M303.7,86.8c0,2.5-0.5,5.1-1.4,7.8c-0.9,2.6-2.1,5.2-3.5,7.7
		c-1.4,2.5-2.9,4.8-4.6,7c-1.6,2.2-3.2,4.2-4.6,5.8c-1.4,1.7-2.7,3-3.7,4.1c-1,1.1-1.6,1.6-1.7,1.7l-4.2-4.4
		c0.1-0.1,0.5-0.5,1.4-1.4c0.9-0.9,2-2.1,3.2-3.5c1.3-1.5,2.7-3.2,4.2-5.2c1.5-2,2.9-4.1,4.2-6.2c1.3-2.2,2.4-4.4,3.2-6.7
		c0.8-2.3,1.3-4.5,1.3-6.6V72.9h6.1V86.8z M310.1,97.7v-28h-19.4v28h-6.1V63.6h25.5v-1.4h6.1v35.5H310.1z M312.6,109h6.1v4.6
		c0,2-0.7,3.6-2,4.9c-1.3,1.3-3,2-4.9,2h-10.5V99.8h6.1v14.7h4.3c0.6,0,0.9-0.3,0.9-0.9V109z"/>
</g>
</svg>
